<svg width="214" height="18" viewBox="0 0 214 18" fill="none" xmlns="http://www.w3.org/2000/svg">
<path d="M35.6579 7.89409H26.8418V0.808943H23.8238V17.381H26.8418V10.5812H35.6579V17.381H38.6522V0.808943H35.6579V7.89409ZM10.2059 9.16141C9.51762 9.80977 8.76698 10.1114 7.84359 10.1114H5.23127V10.1124L3.0191 11.5997V3.49493H7.84359C8.75429 3.49493 9.51926 3.80251 10.25 4.45849C10.919 5.06057 11.217 5.78842 11.217 6.81621C11.217 7.79447 10.9118 8.51142 10.2059 9.16141ZM7.84359 0.808943H0V17.381H3.0191V14.8551L6.08015 12.7984H7.84359C9.45635 12.7984 10.8809 12.2432 12.0907 11.1049C13.3265 9.96655 13.9453 8.53755 13.9453 6.81621C13.9453 5.04424 13.3265 3.58802 12.0907 2.4753C10.8539 1.36422 9.42931 0.808943 7.84359 0.808943ZM94.6612 3.49493H99.4856C100.396 3.49493 101.161 3.80251 101.892 4.45849C102.56 5.06057 102.859 5.78842 102.859 6.81621C102.859 7.79447 102.553 8.51142 101.848 9.16141C101.159 9.80977 100.408 10.1114 99.4856 10.1114H96.8728V10.1124L94.6612 11.5997V3.49493ZM94.6612 14.8551L97.7222 12.7984H99.4856C101.098 12.7984 102.522 12.2432 103.732 11.1049C104.969 9.96655 105.587 8.53755 105.587 6.81621C105.587 5.04424 104.969 3.58802 103.732 2.4753C102.496 1.36422 101.072 0.808943 99.4856 0.808943H91.6426V17.381H94.6612V14.8551ZM118.159 12.1267L120.872 6.20541L123.584 12.1267H118.159ZM112.565 17.381H115.752L116.983 14.6951H124.76L125.991 17.381H129.202L120.896 0L112.565 17.381ZM210.981 0.808943V11.2704L199.512 0.189989V17.381H202.53V6.96755L214 18V0.808943H210.981ZM180.905 10.5812H188.125V7.89409H180.905V3.49493H188.608V0.808943H177.887V17.381H188.777V14.6951H180.905V10.5812ZM161.402 0.808943H158.384V17.381H168.09V14.6951H161.402V0.808943ZM141.899 0.808943H138.881V17.381H148.588V14.6951H141.899V0.808943ZM68.1234 0.808943H65.1043V17.381H74.8118V14.6951H68.1234V0.808943ZM50.6888 17.381H53.7074V0.808943H50.6888V17.381Z" fill="#D2A898"/>
</svg>
